<?xml version="1.0" encoding="UTF-8" standalone="no"?>
<!-- Created with Inkscape (http://www.inkscape.org/) -->

<svg
   xmlns:dc="http://purl.org/dc/elements/1.1/"
   xmlns:cc="http://creativecommons.org/ns#"
   xmlns:rdf="http://www.w3.org/1999/02/22-rdf-syntax-ns#"
   xmlns:svg="http://www.w3.org/2000/svg"
   xmlns="http://www.w3.org/2000/svg"
   xmlns:sodipodi="http://sodipodi.sourceforge.net/DTD/sodipodi-0.dtd"
   xmlns:inkscape="http://www.inkscape.org/namespaces/inkscape"
   width="800"
   height="450"
   viewBox="0 0 211.66666 119.0625"
   version="1.1"
   id="svg8"
   inkscape:version="0.92.3 (2405546, 2018-03-11)"
   sodipodi:docname="add_image_placeholder.svg"
   inkscape:export-filename="/home/uttara/code/source/python/documentEditor/editor/static/add_image_placeholder.png"
   inkscape:export-xdpi="96"
   inkscape:export-ydpi="96">
  <defs
     id="defs2" />
  <sodipodi:namedview
     id="base"
     pagecolor="#ffffff"
     bordercolor="#666666"
     borderopacity="1.0"
     inkscape:pageopacity="0.0"
     inkscape:pageshadow="2"
     inkscape:zoom="0.98994949"
     inkscape:cx="365.88647"
     inkscape:cy="223.57838"
     inkscape:document-units="mm"
     inkscape:current-layer="layer1"
     showgrid="false"
     units="px"
     inkscape:showpageshadow="false"
     inkscape:window-width="1600"
     inkscape:window-height="845"
     inkscape:window-x="0"
     inkscape:window-y="27"
     inkscape:window-maximized="1" />
  <metadata
     id="metadata5">
    <rdf:RDF>
      <cc:Work
         rdf:about="">
        <dc:format>image/svg+xml</dc:format>
        <dc:type
           rdf:resource="http://purl.org/dc/dcmitype/StillImage" />
        <dc:title />
      </cc:Work>
    </rdf:RDF>
  </metadata>
  <g
     inkscape:label="Layer 1"
     inkscape:groupmode="layer"
     id="layer1"
     transform="translate(0,-177.93748)">
    <rect
       style="fill:#004a99;fill-opacity:1;fill-rule:evenodd;stroke:none;stroke-width:0.26458332;stroke-linecap:square;stroke-linejoin:miter;stroke-miterlimit:4;stroke-dasharray:none;stroke-dashoffset:0;stroke-opacity:1;paint-order:markers fill stroke"
       id="rect815"
       width="211.66667"
       height="119.0625"
       x="0"
       y="177.93748" />
    <flowRoot
       xml:space="preserve"
       id="flowRoot835"
       style="fill:black;fill-opacity:1;stroke:none;font-family:sans-serif;font-style:normal;font-weight:bold;font-size:42.66666667px;line-height:1.25;letter-spacing:0px;word-spacing:0px;-inkscape-font-specification:'sans-serif Bold';font-stretch:normal;font-variant:normal;"><flowRegion
         id="flowRegion837"
         style="font-size:42.66666667px;"><rect
           id="rect839"
           width="744.28571"
           height="392.85715"
           x="25.714285"
           y="30"
           style="font-size:42.66666667px;" /></flowRegion><flowPara
         id="flowPara841" /></flowRoot>    <g
       aria-label="Click to Add Image"
       transform="matrix(0.26458333,0,0,0.26458333,17.837599,205.95358)"
       style="font-style:normal;font-variant:normal;font-weight:bold;font-stretch:normal;font-size:5.33333349px;line-height:1.25;font-family:sans-serif;-inkscape-font-specification:'sans-serif Bold';letter-spacing:0px;word-spacing:0px;fill:#000000;fill-opacity:1;stroke:none"
       id="flowRoot843">
      <path
         d="m 215.6199,90.74262 q -1.32041,0.68511 -2.75292,1.0339 -1.43252,0.34878 -2.9896,0.34878 -4.64633,0 -7.36188,-2.59098 -2.71555,-2.60344 -2.71555,-7.05046 0,-4.459483 2.71555,-7.050469 2.71555,-2.603441 7.36188,-2.603441 1.55708,0 2.9896,0.348786 1.43251,0.348787 2.75292,1.033903 v 3.849105 q -1.33286,-0.909335 -2.62835,-1.332863 -1.2955,-0.423523 -2.72801,-0.423523 -2.56607,0 -4.03596,1.644279 -1.46988,1.644278 -1.46988,4.534223 0,2.87748 1.46988,4.52176 1.46989,1.64428 4.03596,1.64428 1.43251,0 2.72801,-0.42353 1.29549,-0.42352 2.62835,-1.33286 z"
         style="font-size:53.33333588px;fill:#ffffff;fill-opacity:1;stroke-width:0.47833547"
         id="path870"
         inkscape:connector-curvature="0" />
      <path
         d="m 219.40672,72.381511 h 4.45948 V 91.76407 h -4.45948 z"
         style="font-size:53.33333588px;fill:#ffffff;fill-opacity:1;stroke-width:0.47833547"
         id="path872"
         inkscape:connector-curvature="0" />
      <path
         d="m 228.1762,77.812613 h 4.45949 V 91.76407 h -4.45949 z m 0,-5.431102 h 4.45949 v 3.637343 h -4.45949 z"
         style="font-size:53.33333588px;fill:#ffffff;fill-opacity:1;stroke-width:0.47833547"
         id="path874"
         inkscape:connector-curvature="0" />
      <path
         d="m 248.21896,78.248596 v 3.637344 q -0.90933,-0.62284 -1.83113,-0.9218 -0.90933,-0.29895 -1.89341,-0.29895 -1.8685,0 -2.91486,1.09618 -1.0339,1.08373 -1.0339,3.03942 0,1.9557 1.0339,3.05188 1.04636,1.08373 2.91486,1.08373 1.04636,0 1.98061,-0.31141 0.9467,-0.31142 1.74393,-0.9218 v 3.6498 q -1.04636,0.38616 -2.13009,0.57301 -1.07127,0.1993 -2.155,0.1993 -3.77436,0 -5.90445,-1.93077 -2.13009,-1.94324 -2.13009,-5.39374 0,-3.45049 2.13009,-5.381272 2.13009,-1.943237 5.90445,-1.943237 1.09619,0 2.155,0.199308 1.07128,0.186847 2.13009,0.573007 z"
         style="font-size:53.33333588px;fill:#ffffff;fill-opacity:1;stroke-width:0.47833547"
         id="path876"
         inkscape:connector-curvature="0" />
      <path
         d="m 252.09297,72.381511 h 4.45949 V 82.93229 l 5.13214,-5.119677 h 5.18196 l -6.81378,6.402717 7.34942,7.54874 h -5.40619 l -5.44355,-5.81726 v 5.81726 h -4.45949 z"
         style="font-size:53.33333588px;fill:#ffffff;fill-opacity:1;stroke-width:0.47833547"
         id="path878"
         inkscape:connector-curvature="0" />
      <path
         d="m 282.82353,73.851396 v 3.961217 h 4.59651 v 3.188897 h -4.59651 v 5.91692 q 0,0.97162 0.38616,1.3204 0.38616,0.33633 1.53217,0.33633 h 2.29203 v 3.18891 h -3.8242 q -2.64081,0 -3.74945,-1.09619 -1.09618,-1.10864 -1.09618,-3.74945 v -5.91692 h -2.21729 v -3.188897 h 2.21729 v -3.961217 z"
         style="font-size:53.33333588px;fill:#ffffff;fill-opacity:1;stroke-width:0.47833547"
         id="path880"
         inkscape:connector-curvature="0" />
      <path
         d="m 296.79991,80.66519 q -1.48234,0 -2.26712,1.07127 -0.77231,1.05882 -0.77231,3.06433 0,2.00552 0.77231,3.0768 0.78478,1.05881 2.26712,1.05881 1.45742,0 2.22973,-1.05881 0.77232,-1.07128 0.77232,-3.0768 0,-2.00551 -0.77232,-3.06433 -0.77231,-1.07127 -2.22973,-1.07127 z m 0,-3.188909 q 3.59997,0 5.61795,1.943237 2.03043,1.943242 2.03043,5.381272 0,3.43804 -2.03043,5.38128 -2.01798,1.94323 -5.61795,1.94323 -3.61243,0 -5.65532,-1.94323 -2.03044,-1.94324 -2.03044,-5.38128 0,-3.43803 2.03044,-5.381272 2.04289,-1.943237 5.65532,-1.943237 z"
         style="font-size:53.33333588px;fill:#ffffff;fill-opacity:1;stroke-width:0.47833547"
         id="path882"
         inkscape:connector-curvature="0" />
      <path
         d="m 328.05364,88.37585 h -7.4989 l -1.18338,3.38822 h -4.82073 l 6.88853,-18.59779 h 5.7176 l 6.88853,18.59779 h -4.82072 z m -6.30306,-3.45049 h 5.09477 l -2.54116,-7.399251 z"
         style="font-size:53.33333588px;fill:#ffffff;fill-opacity:1;stroke-width:0.47833547"
         id="path884"
         inkscape:connector-curvature="0" />
      <path
         d="m 345.79192,79.855502 v -7.473991 h 4.4844 V 91.76407 h -4.4844 v -2.01798 q -0.92179,1.2332 -2.03043,1.80621 -1.10864,0.573 -2.56607,0.573 -2.57853,0 -4.23526,-2.04289 -1.65673,-2.05534 -1.65673,-5.28162 0,-3.22627 1.65673,-5.269159 1.65673,-2.05535 4.23526,-2.05535 1.44497,0 2.55362,0.585463 1.12109,0.573008 2.04288,1.793758 z m -2.93976,9.031078 q 1.43251,0 2.17991,-1.04636 0.75985,-1.04636 0.75985,-3.03943 0,-1.99306 -0.75985,-3.03942 -0.7474,-1.04636 -2.17991,-1.04636 -1.42006,0 -2.17992,1.04636 -0.7474,1.04636 -0.7474,3.03942 0,1.99307 0.7474,3.03943 0.75986,1.04636 2.17992,1.04636 z"
         style="font-size:53.33333588px;fill:#ffffff;fill-opacity:1;stroke-width:0.47833547"
         id="path886"
         inkscape:connector-curvature="0" />
      <path
         d="m 364.07829,79.855502 v -7.473991 h 4.48439 V 91.76407 h -4.48439 v -2.01798 q -0.9218,1.2332 -2.03044,1.80621 -1.10864,0.573 -2.56607,0.573 -2.57852,0 -4.23526,-2.04289 -1.65674,-2.05534 -1.65674,-5.28162 0,-3.22627 1.65674,-5.269159 1.65674,-2.05535 4.23526,-2.05535 1.44497,0 2.55361,0.585463 1.1211,0.573008 2.0429,1.793758 z m -2.93978,9.031078 q 1.43252,0 2.17992,-1.04636 0.75986,-1.04636 0.75986,-3.03943 0,-1.99306 -0.75986,-3.03942 -0.7474,-1.04636 -2.17992,-1.04636 -1.42005,0 -2.17991,1.04636 -0.7474,1.04636 -0.7474,3.03942 0,1.99307 0.7474,3.03943 0.75986,1.04636 2.17991,1.04636 z"
         style="font-size:53.33333588px;fill:#ffffff;fill-opacity:1;stroke-width:0.47833547"
         id="path888"
         inkscape:connector-curvature="0" />
      <path
         d="m 381.94113,73.16628 h 4.79581 v 18.59779 h -4.79581 z"
         style="font-size:53.33333588px;fill:#ffffff;fill-opacity:1;stroke-width:0.47833547"
         id="path890"
         inkscape:connector-curvature="0" />
      <path
         d="m 404.18872,80.12955 q 0.84705,-1.295495 2.00552,-1.968154 1.17092,-0.685115 2.56607,-0.685115 2.40413,0 3.66226,1.482342 1.25812,1.482347 1.25812,4.310007 v 8.49544 h -4.4844 v -7.27469 q 0.0124,-0.16194 0.0124,-0.33633 0.0124,-0.1744 0.0124,-0.49827 0,-1.48234 -0.43598,-2.14254 -0.43598,-0.67266 -1.4076,-0.67266 -1.27058,0 -1.96815,1.04636 -0.68512,1.04635 -0.71003,3.02696 v 6.85117 h -4.4844 v -7.27469 q 0,-2.31694 -0.39861,-2.97714 -0.39861,-0.67266 -1.42006,-0.67266 -1.28303,0 -1.98061,1.05882 -0.69757,1.04636 -0.69757,3.00205 v 6.86362 h -4.48439 V 77.812613 h 4.48439 v 2.042889 q 0.82214,-1.183383 1.88095,-1.781302 1.07128,-0.597919 2.35431,-0.597919 1.44497,0 2.55362,0.697575 1.10864,0.697571 1.68164,1.955694 z"
         style="font-size:53.33333588px;fill:#ffffff;fill-opacity:1;stroke-width:0.47833547"
         id="path892"
         inkscape:connector-curvature="0" />
      <path
         d="m 424.11936,85.48591 q -1.39515,0 -2.10517,0.47335 -0.69757,0.47335 -0.69757,1.39515 0,0.84705 0.56054,1.33286 0.57301,0.47335 1.582,0.47335 1.25812,0 2.11763,-0.89687 0.85951,-0.90934 0.85951,-2.26712 v -0.51072 z m 6.81379,-1.68165 v 7.95981 h -4.49685 v -2.06781 q -0.89688,1.27058 -2.01798,1.85604 -1.1211,0.573 -2.728,0.573 -2.16747,0 -3.52524,-1.25811 -1.34532,-1.27058 -1.34532,-3.28856 0,-2.45396 1.68165,-3.59998 1.6941,-1.14601 5.30654,-1.14601 h 2.62835 v -0.34878 q 0,-1.05882 -0.8346,-1.54463 -0.83459,-0.49826 -2.60344,-0.49826 -1.43251,0 -2.66572,0.2865 -1.23321,0.2865 -2.29202,0.85951 v -3.400668 q 1.43251,-0.348788 2.87748,-0.523179 1.44498,-0.186852 2.88995,-0.186852 3.77436,0 5.44355,1.494798 1.68165,1.482341 1.68165,4.833181 z"
         style="font-size:53.33333588px;fill:#ffffff;fill-opacity:1;stroke-width:0.47833547"
         id="path894"
         inkscape:connector-curvature="0" />
      <path
         d="m 444.59809,89.3973 q -0.92179,1.22075 -2.03043,1.79376 -1.10864,0.57301 -2.56607,0.57301 -2.55362,0 -4.22281,-2.00553 -1.66919,-2.01797 -1.66919,-5.13214 0,-3.12662 1.66919,-5.119686 1.66919,-2.005517 4.22281,-2.005517 1.45743,0 2.56607,0.573003 1.10864,0.573008 2.03043,1.806214 v -2.067801 h 4.4844 V 90.35646 q 0,3.3633 -2.13009,5.13214 -2.11763,1.7813 -6.15359,1.7813 -1.30794,0 -2.5287,-0.1993 -1.22075,-0.19931 -2.45396,-0.61038 v -3.4754 q 1.17093,0.67265 2.29203,0.99653 1.1211,0.33633 2.25465,0.33633 2.19237,0 3.21382,-0.95916 1.02144,-0.95917 1.02144,-3.00206 z m -2.93976,-8.68229 q -1.3827,0 -2.15501,1.02145 -0.77231,1.02144 -0.77231,2.88994 0,1.91833 0.7474,2.91486 0.7474,0.98407 2.17992,0.98407 1.39514,0 2.16745,-1.02144 0.77231,-1.02145 0.77231,-2.87749 0,-1.8685 -0.77231,-2.88994 -0.77231,-1.02145 -2.16745,-1.02145 z"
         style="font-size:53.33333588px;fill:#ffffff;fill-opacity:1;stroke-width:0.47833547"
         id="path896"
         inkscape:connector-curvature="0" />
      <path
         d="m 467.31904,84.75097 v 1.27058 h -10.42622 q 0.16194,1.56954 1.13356,2.3543 0.97162,0.78477 2.71555,0.78477 1.4076,0 2.87748,-0.41107 1.48234,-0.42352 3.03942,-1.27058 v 3.43804 q -1.58199,0.59792 -3.16398,0.89688 -1.582,0.31141 -3.16399,0.31141 -3.78683,0 -5.892,-1.91832 -2.09272,-1.93078 -2.09272,-5.40619 0,-3.41312 2.05535,-5.368816 2.0678,-1.955693 5.68023,-1.955693 3.28856,0 5.25671,1.98061 1.98061,1.980609 1.98061,5.294079 z m -4.58405,-1.48234 q 0,-1.27058 -0.7474,-2.0429 -0.73494,-0.78476 -1.93078,-0.78476 -1.29549,0 -2.10517,0.73494 -0.80969,0.72249 -1.00899,2.09272 z"
         style="font-size:53.33333588px;fill:#ffffff;fill-opacity:1;stroke-width:0.47833547"
         id="path898"
         inkscape:connector-curvature="0" />
      <g
         aria-label="800 x 450"
         transform="translate(142.85715,-167.14288)"
         style="font-style:normal;font-variant:normal;font-weight:bold;font-stretch:normal;font-size:5.33333349px;line-height:1.25;font-family:sans-serif;-inkscape-font-specification:'sans-serif Bold';letter-spacing:0px;word-spacing:0px;fill:#ffffff;fill-opacity:1;stroke:none"
         id="flowRoot833">
        <path
           d="m 145.06929,298.99935 q -0.98437,0 -1.51302,0.53776 -0.52864,0.53776 -0.52864,1.54036 0,1.00261 0.52864,1.54037 0.52865,0.52864 1.51302,0.52864 0.97526,0 1.49479,-0.52864 0.51953,-0.53776 0.51953,-1.54037 0,-1.01172 -0.51953,-1.54036 -0.51953,-0.53776 -1.49479,-0.53776 z m -2.5612,-1.15755 q -1.23958,-0.3737 -1.86849,-1.14844 -0.6289,-0.77474 -0.6289,-1.93229 0,-1.72266 1.28515,-2.625 1.28516,-0.90235 3.77344,-0.90235 2.47005,0 3.75521,0.90235 1.28516,0.89323 1.28516,2.625 0,1.15755 -0.63802,1.93229 -0.62891,0.77474 -1.86849,1.14844 1.38541,0.38281 2.08724,1.24869 0.71093,0.85678 0.71093,2.16928 0,2.02343 -1.34896,3.0625 -1.33984,1.02994 -3.98307,1.02994 -2.65234,0 -4.01041,-1.02994 -1.34896,-1.03907 -1.34896,-3.0625 0,-1.3125 0.70182,-2.16928 0.71094,-0.86588 2.09635,-1.24869 z m 0.82032,-2.72526 q 0,0.81119 0.44661,1.24869 0.45573,0.4375 1.29427,0.4375 0.82031,0 1.26693,-0.4375 0.44661,-0.4375 0.44661,-1.24869 0,-0.8112 -0.44661,-1.23959 -0.44662,-0.4375 -1.26693,-0.4375 -0.83854,0 -1.29427,0.4375 -0.44661,0.4375 -0.44661,1.23959 z"
           style="font-size:18.66666603px;fill:#ffffff;fill-opacity:1"
           id="path841"
           inkscape:connector-curvature="0" />
        <path
           d="m 160.1357,298.27018 q 0,-2.55208 -0.48308,-3.59114 -0.47395,-1.04818 -1.60416,-1.04818 -1.13021,0 -1.61328,1.04818 -0.48308,1.03906 -0.48308,3.59114 0,2.57943 0.48308,3.63672 0.48307,1.05729 1.61328,1.05729 1.12109,0 1.60416,-1.05729 0.48308,-1.05729 0.48308,-3.63672 z m 3.50911,0.0274 q 0,3.38151 -1.45833,5.22265 -1.45833,1.83203 -4.13802,1.83203 -2.6888,0 -4.14714,-1.83203 -1.45833,-1.84114 -1.45833,-5.22265 0,-3.39063 1.45833,-5.22266 1.45834,-1.84115 4.14714,-1.84115 2.67969,0 4.13802,1.84115 1.45833,1.83203 1.45833,5.22266 z"
           style="font-size:18.66666603px;fill:#ffffff;fill-opacity:1"
           id="path843"
           inkscape:connector-curvature="0" />
        <path
           d="m 173.11486,298.27018 q 0,-2.55208 -0.48307,-3.59114 -0.47396,-1.04818 -1.60417,-1.04818 -1.1302,0 -1.61328,1.04818 -0.48307,1.03906 -0.48307,3.59114 0,2.57943 0.48307,3.63672 0.48308,1.05729 1.61328,1.05729 1.1211,0 1.60417,-1.05729 0.48307,-1.05729 0.48307,-3.63672 z m 3.50912,0.0274 q 0,3.38151 -1.45834,5.22265 -1.45833,1.83203 -4.13802,1.83203 -2.6888,0 -4.14713,-1.83203 -1.45833,-1.84114 -1.45833,-5.22265 0,-3.39063 1.45833,-5.22266 1.45833,-1.84115 4.14713,-1.84115 2.67969,0 4.13802,1.84115 1.45834,1.83203 1.45834,5.22266 z"
           style="font-size:18.66666603px;fill:#ffffff;fill-opacity:1"
           id="path845"
           inkscape:connector-curvature="0" />
        <path
           d="m 188.14481,299.86523 -3.68229,-4.98567 h 3.45443 l 2.08724,3.02604 2.11458,-3.02604 h 3.45443 l -3.68229,4.96744 3.86458,5.24089 h -3.45443 l -2.29687,-3.22656 -2.26953,3.22656 h -3.45443 z"
           style="font-size:18.66666603px;fill:#ffffff;fill-opacity:1"
           id="path847"
           inkscape:connector-curvature="0" />
        <path
           d="m 209.3909,294.36914 -3.84635,5.69661 h 3.84635 z m -0.58333,-2.88932 h 3.90104 v 8.58593 h 1.94141 v 2.54297 h -1.94141 v 2.47917 h -3.31771 v -2.47917 h -6.03385 v -3.00781 z"
           style="font-size:18.66666603px;fill:#ffffff;fill-opacity:1"
           id="path849"
           inkscape:connector-curvature="0" />
        <path
           d="m 217.47554,291.47982 h 8.72265 v 2.57942 h -5.92448 v 2.10547 q 0.40105,-0.10937 0.80209,-0.16406 0.41015,-0.0638 0.84765,-0.0638 2.48828,0 3.8737,1.2487 1.38542,1.23958 1.38542,3.46354 0,2.20573 -1.51302,3.45443 -1.50391,1.24869 -4.1836,1.24869 -1.15755,0 -2.29687,-0.22786 -1.13021,-0.21875 -2.2513,-0.67448 v -2.76172 q 1.11198,0.63802 2.10547,0.95703 1.0026,0.31901 1.88671,0.31901 1.27605,0 2.00521,-0.61979 0.73828,-0.62891 0.73828,-1.69531 0,-1.07552 -0.73828,-1.69531 -0.72916,-0.6198 -2.00521,-0.6198 -0.75651,0 -1.61328,0.20052 -0.85677,0.19141 -1.84114,0.60157 z"
           style="font-size:18.66666603px;fill:#ffffff;fill-opacity:1"
           id="path851"
           inkscape:connector-curvature="0" />
        <path
           d="m 237.06278,298.27018 q 0,-2.55208 -0.48307,-3.59114 -0.47396,-1.04818 -1.60417,-1.04818 -1.13021,0 -1.61328,1.04818 -0.48307,1.03906 -0.48307,3.59114 0,2.57943 0.48307,3.63672 0.48307,1.05729 1.61328,1.05729 1.1211,0 1.60417,-1.05729 0.48307,-1.05729 0.48307,-3.63672 z m 3.50912,0.0274 q 0,3.38151 -1.45834,5.22265 -1.45833,1.83203 -4.13802,1.83203 -2.6888,0 -4.14713,-1.83203 -1.45834,-1.84114 -1.45834,-5.22265 0,-3.39063 1.45834,-5.22266 1.45833,-1.84115 4.14713,-1.84115 2.67969,0 4.13802,1.84115 1.45834,1.83203 1.45834,5.22266 z"
           style="font-size:18.66666603px;fill:#ffffff;fill-opacity:1"
           id="path853"
           inkscape:connector-curvature="0" />
      </g>
    </g>
  </g>
</svg>
