<?xml version="1.0" encoding="UTF-8" standalone="no"?>
<!-- Created with Inkscape (http://www.inkscape.org/) -->

<svg
   xmlns:dc="http://purl.org/dc/elements/1.1/"
   xmlns:cc="http://creativecommons.org/ns#"
   xmlns:rdf="http://www.w3.org/1999/02/22-rdf-syntax-ns#"
   xmlns:svg="http://www.w3.org/2000/svg"
   xmlns="http://www.w3.org/2000/svg"
   xmlns:sodipodi="http://sodipodi.sourceforge.net/DTD/sodipodi-0.dtd"
   xmlns:inkscape="http://www.inkscape.org/namespaces/inkscape"
   width="400"
   height="225"
   viewBox="0 0 105.83333 59.531252"
   version="1.1"
   id="svg8"
   inkscape:version="0.92.3 (2405546, 2018-03-11)"
   sodipodi:docname="dp_placeholder.svg">
  <defs
     id="defs2" />
  <sodipodi:namedview
     id="base"
     pagecolor="#ffffff"
     bordercolor="#666666"
     borderopacity="1.0"
     inkscape:pageopacity="0.0"
     inkscape:pageshadow="2"
     inkscape:zoom="0.98994949"
     inkscape:cx="-59.829051"
     inkscape:cy="134.5771"
     inkscape:document-units="mm"
     inkscape:current-layer="flowRoot987"
     showgrid="false"
     units="px"
     inkscape:showpageshadow="false"
     inkscape:window-width="1600"
     inkscape:window-height="845"
     inkscape:window-x="0"
     inkscape:window-y="27"
     inkscape:window-maximized="1" />
  <metadata
     id="metadata5">
    <rdf:RDF>
      <cc:Work
         rdf:about="">
        <dc:format>image/svg+xml</dc:format>
        <dc:type
           rdf:resource="http://purl.org/dc/dcmitype/StillImage" />
        <dc:title />
      </cc:Work>
    </rdf:RDF>
  </metadata>
  <g
     inkscape:label="Layer 1"
     inkscape:groupmode="layer"
     id="layer1"
     transform="translate(0,-237.46873)">
    <rect
       style="fill:#004a99;fill-opacity:1;fill-rule:evenodd;stroke:none;stroke-width:0.21535203;stroke-linecap:square;stroke-linejoin:miter;stroke-miterlimit:4;stroke-dasharray:none;stroke-dashoffset:0;stroke-opacity:1;paint-order:markers fill stroke"
       id="rect834"
       width="105.83334"
       height="59.53125"
       x="-2.220446e-16"
       y="237.46873" />
    <g
       aria-label="Add DP Image"
       transform="matrix(0.26458333,0,0,0.26458333,20.579754,242.34674)"
       style="font-style:normal;font-variant:normal;font-weight:bold;font-stretch:normal;font-size:5.33333349px;line-height:1.25;font-family:sans-serif;-inkscape-font-specification:'sans-serif Bold';letter-spacing:0px;word-spacing:0px;fill:#000000;fill-opacity:1;stroke:none"
       id="flowRoot987">
      <path
         d="m 34.033203,69.046875 h -7.054687 l -1.113282,3.1875 h -4.535156 l 6.480469,-17.496094 h 5.378906 l 6.480469,17.496094 h -4.535156 z m -5.929687,-3.246094 h 4.792968 l -2.390625,-6.960937 z"
         style="font-size:24px;fill:#ffffff;fill-opacity:1"
         id="path836" />
      <path
         d="M 50.720703,61.03125 V 54 h 4.21875 v 18.234375 h -4.21875 v -1.898438 q -0.867187,1.160157 -1.910156,1.699219 -1.042969,0.539063 -2.414063,0.539063 -2.425781,0 -3.984375,-1.921875 -1.558593,-1.933594 -1.558593,-4.96875 0,-3.035157 1.558593,-4.957032 1.558594,-1.933593 3.984375,-1.933593 1.359375,0 2.402344,0.550781 1.054688,0.539062 1.921875,1.6875 z m -2.765625,8.496094 q 1.347656,0 2.050781,-0.984375 0.714844,-0.984375 0.714844,-2.859375 0,-1.875 -0.714844,-2.859375 -0.703125,-0.984375 -2.050781,-0.984375 -1.335937,0 -2.050781,0.984375 -0.703125,0.984375 -0.703125,2.859375 0,1.875 0.703125,2.859375 0.714844,0.984375 2.050781,0.984375 z"
         style="font-size:24px;fill:#ffffff;fill-opacity:1"
         id="path838" />
      <path
         d="M 67.923828,61.03125 V 54 h 4.21875 v 18.234375 h -4.21875 v -1.898438 q -0.867187,1.160157 -1.910156,1.699219 -1.042969,0.539063 -2.414063,0.539063 -2.425781,0 -3.984375,-1.921875 -1.558593,-1.933594 -1.558593,-4.96875 0,-3.035157 1.558593,-4.957032 1.558594,-1.933593 3.984375,-1.933593 1.359375,0 2.402344,0.550781 1.054688,0.539062 1.921875,1.6875 z m -2.765625,8.496094 q 1.347656,0 2.050781,-0.984375 0.714844,-0.984375 0.714844,-2.859375 0,-1.875 -0.714844,-2.859375 -0.703125,-0.984375 -2.050781,-0.984375 -1.335937,0 -2.050781,0.984375 -0.703125,0.984375 -0.703125,2.859375 0,1.875 0.703125,2.859375 0.714844,0.984375 2.050781,0.984375 z"
         style="font-size:24px;fill:#ffffff;fill-opacity:1"
         id="path840" />
      <path
         d="m 89.240234,58.148437 v 10.675782 h 1.617188 q 2.765625,0 4.21875,-1.371094 1.464844,-1.371094 1.464844,-3.984375 0,-2.601563 -1.453125,-3.960938 -1.453125,-1.359375 -4.230469,-1.359375 z m -4.511718,-3.410156 h 4.757812 q 3.984375,0 5.929688,0.574219 1.957031,0.5625 3.351562,1.921875 1.230469,1.183594 1.828122,2.730469 0.59766,1.546875 0.59766,3.503906 0,1.980469 -0.59766,3.539062 -0.597653,1.546875 -1.828122,2.730469 -1.40625,1.359375 -3.375,1.933594 -1.96875,0.5625 -5.90625,0.5625 h -4.757812 z"
         style="font-size:24px;fill:#ffffff;fill-opacity:1"
         id="path842" />
      <path
         d="m 104.65039,54.738281 h 7.48828 q 3.33985,0 5.1211,1.488281 1.79296,1.476563 1.79296,4.21875 0,2.753907 -1.79296,4.242188 -1.78125,1.476562 -5.1211,1.476562 h -2.97656 v 6.070313 h -4.51172 z m 4.51172,3.269531 v 4.886719 h 2.49609 q 1.3125,0 2.02735,-0.632812 0.71484,-0.644532 0.71484,-1.816407 0,-1.171875 -0.71484,-1.804687 -0.71485,-0.632813 -2.02735,-0.632813 z"
         style="font-size:24px;fill:#ffffff;fill-opacity:1"
         id="path844" />
      <path
         d="m 130.57227,54.738281 h 4.51171 v 17.496094 h -4.51171 z"
         style="font-size:24px;fill:#ffffff;fill-opacity:1"
         id="path846" />
      <path
         d="m 151.50195,61.289062 q 0.79688,-1.21875 1.88672,-1.851562 1.10156,-0.644531 2.41406,-0.644531 2.26172,0 3.44532,1.394531 1.18359,1.394531 1.18359,4.054687 v 7.992188 h -4.21875 v -6.84375 q 0.0117,-0.152344 0.0117,-0.316406 0.0117,-0.164063 0.0117,-0.46875 0,-1.394532 -0.41016,-2.015625 -0.41015,-0.632813 -1.32422,-0.632813 -1.19531,0 -1.85156,0.984375 -0.64453,0.984375 -0.66797,2.847656 v 6.445313 h -4.21875 v -6.84375 q 0,-2.179688 -0.375,-2.800781 -0.375,-0.632813 -1.33594,-0.632813 -1.20703,0 -1.86328,0.996094 -0.65625,0.984375 -0.65625,2.824219 v 6.457031 h -4.21875 v -13.125 h 4.21875 v 1.921875 q 0.77344,-1.113281 1.76953,-1.675781 1.00782,-0.5625 2.21485,-0.5625 1.35937,0 2.40234,0.65625 1.04297,0.65625 1.58203,1.839843 z"
         style="font-size:24px;fill:#ffffff;fill-opacity:1"
         id="path848" />
      <path
         d="m 170.25195,66.328125 q -1.3125,0 -1.98047,0.445312 -0.65625,0.445313 -0.65625,1.3125 0,0.796875 0.52735,1.253907 0.53906,0.445312 1.48828,0.445312 1.18359,0 1.99219,-0.84375 0.80859,-0.855469 0.80859,-2.132812 v -0.480469 z m 6.41016,-1.582031 v 7.488281 h -4.23047 v -1.945313 q -0.84375,1.195313 -1.89844,1.746094 -1.05468,0.539063 -2.5664,0.539063 -2.03907,0 -3.31641,-1.183594 -1.26562,-1.195313 -1.26562,-3.09375 0,-2.308594 1.58203,-3.386719 1.59375,-1.078125 4.99218,-1.078125 h 2.47266 v -0.328125 q 0,-0.996094 -0.78516,-1.453125 -0.78515,-0.46875 -2.44921,-0.46875 -1.34766,0 -2.50782,0.269531 -1.16015,0.269532 -2.15625,0.808594 v -3.199219 q 1.34766,-0.328125 2.70703,-0.492187 1.35938,-0.175781 2.71875,-0.175781 3.55079,0 5.1211,1.40625 1.58203,1.394531 1.58203,4.546875 z"
         style="font-size:24px;fill:#ffffff;fill-opacity:1"
         id="path850" />
      <path
         d="m 189.51758,70.007812 q -0.86719,1.148438 -1.91016,1.6875 -1.04297,0.539063 -2.41406,0.539063 -2.40234,0 -3.97266,-1.886719 -1.57031,-1.898437 -1.57031,-4.828125 0,-2.941406 1.57031,-4.816406 1.57032,-1.886719 3.97266,-1.886719 1.37109,0 2.41406,0.539063 1.04297,0.539062 1.91016,1.699218 v -1.945312 h 4.21875 v 11.800781 q 0,3.164063 -2.00391,4.828125 -1.99219,1.675781 -5.78906,1.675781 -1.23047,0 -2.37891,-0.1875 -1.14843,-0.1875 -2.30859,-0.574218 v -3.269532 q 1.10156,0.632813 2.15625,0.9375 1.05469,0.316407 2.12109,0.316407 2.0625,0 3.02344,-0.902344 0.96094,-0.902344 0.96094,-2.824219 z m -2.76563,-8.167968 q -1.30078,0 -2.02734,0.960937 -0.72656,0.960938 -0.72656,2.71875 0,1.804688 0.70312,2.742188 0.70313,0.925781 2.05078,0.925781 1.3125,0 2.03907,-0.960938 0.72656,-0.960937 0.72656,-2.707031 0,-1.757812 -0.72656,-2.71875 -0.72657,-0.960937 -2.03907,-0.960937 z"
         style="font-size:24px;fill:#ffffff;fill-opacity:1"
         id="path852" />
      <path
         d="m 210.89258,65.636719 v 1.195312 h -9.8086 q 0.15235,1.476563 1.06641,2.214844 0.91406,0.738281 2.55469,0.738281 1.32422,0 2.70703,-0.386719 Q 208.80664,69 210.27148,68.203125 V 71.4375 q -1.48828,0.5625 -2.97656,0.84375 -1.48828,0.292969 -2.97656,0.292969 -3.5625,0 -5.54297,-1.804688 -1.96875,-1.816406 -1.96875,-5.085937 0,-3.210938 1.93359,-5.050782 1.94532,-1.839843 5.34375,-1.839843 3.09375,0 4.94532,1.863281 1.86328,1.863281 1.86328,4.980469 z m -4.3125,-1.394532 q 0,-1.195312 -0.70313,-1.921875 -0.6914,-0.738281 -1.8164,-0.738281 -1.21875,0 -1.98047,0.691406 -0.76172,0.679688 -0.94922,1.96875 z"
         style="font-size:24px;fill:#ffffff;fill-opacity:1"
         id="path854" />
    </g>
    <g
       aria-label="400 x 225"
       transform="matrix(0.26458333,0,0,0.26458333,14.165285,233.99423)"
       style="font-style:normal;font-variant:normal;font-weight:bold;font-stretch:normal;font-size:5.33333349px;line-height:1.25;font-family:sans-serif;-inkscape-font-specification:'sans-serif Bold';letter-spacing:0px;word-spacing:0px;fill:#000000;fill-opacity:1;stroke:none"
       id="flowRoot995">
      <path
         d="m 91.695964,128.58984 -4.395834,6.51042 h 4.395834 z m -0.666667,-3.30208 h 4.458334 v 9.8125 h 2.21875 v 2.90625 h -2.21875 v 2.83333 h -3.791667 v -2.83333 H 84.80013 v -3.4375 z"
         style="font-size:21.33333397px;fill:#ffffff;fill-opacity:1"
         id="path821" />
      <path
         d="m 108.48763,133.04818 q 0,-2.91667 -0.55208,-4.10417 -0.54167,-1.19792 -1.83334,-1.19792 -1.29166,0 -1.84375,1.19792 -0.55208,1.1875 -0.55208,4.10417 0,2.94791 0.55208,4.15625 0.55209,1.20833 1.84375,1.20833 1.28125,0 1.83334,-1.20833 0.55208,-1.20834 0.55208,-4.15625 z m 4.01042,0.0312 q 0,3.86458 -1.66667,5.96875 -1.66667,2.09375 -4.72917,2.09375 -3.07291,0 -4.73958,-2.09375 -1.666666,-2.10417 -1.666666,-5.96875 0,-3.875 1.666666,-5.96875 1.66667,-2.10417 4.73958,-2.10417 3.0625,0 4.72917,2.10417 1.66667,2.09375 1.66667,5.96875 z"
         style="font-size:21.33333397px;fill:#ffffff;fill-opacity:1"
         id="path823" />
      <path
         d="m 123.32097,133.04818 q 0,-2.91667 -0.55209,-4.10417 -0.54166,-1.19792 -1.83333,-1.19792 -1.29167,0 -1.84375,1.19792 -0.55209,1.1875 -0.55209,4.10417 0,2.94791 0.55209,4.15625 0.55208,1.20833 1.84375,1.20833 1.28125,0 1.83333,-1.20833 0.55209,-1.20834 0.55209,-4.15625 z m 4.01041,0.0312 q 0,3.86458 -1.66666,5.96875 -1.66667,2.09375 -4.72917,2.09375 -3.07292,0 -4.73959,-2.09375 -1.66666,-2.10417 -1.66666,-5.96875 0,-3.875 1.66666,-5.96875 1.66667,-2.10417 4.73959,-2.10417 3.0625,0 4.72917,2.10417 1.66666,2.09375 1.66666,5.96875 z"
         style="font-size:21.33333397px;fill:#ffffff;fill-opacity:1"
         id="path825" />
      <path
         d="m 140.49805,134.87109 -4.20834,-5.69791 h 3.94792 l 2.38542,3.45833 2.41667,-3.45833 h 3.94791 l -4.20833,5.67708 4.41667,5.98958 h -3.94792 l -2.625,-3.6875 -2.59375,3.6875 h -3.94792 z"
         style="font-size:21.33333397px;fill:#ffffff;fill-opacity:1"
         id="path827" />
      <path
         d="m 163.07097,137.89193 h 6.84375 v 2.94791 h -11.30209 v -2.94791 l 5.67709,-5.01042 q 0.76041,-0.6875 1.125,-1.34375 0.36458,-0.65625 0.36458,-1.36458 0,-1.09375 -0.73958,-1.76042 -0.72917,-0.66667 -1.94792,-0.66667 -0.9375,0 -2.05208,0.40625 -1.11459,0.39584 -2.38542,1.1875 v -3.41666 q 1.35417,-0.44792 2.67708,-0.67709 1.32292,-0.23958 2.59375,-0.23958 2.79167,0 4.33334,1.22917 1.55208,1.22916 1.55208,3.42708 0,1.27083 -0.65625,2.375 -0.65625,1.09375 -2.76042,2.9375 z"
         style="font-size:21.33333397px;fill:#ffffff;fill-opacity:1"
         id="path829" />
      <path
         d="m 177.9043,137.89193 h 6.84375 v 2.94791 h -11.30208 v -2.94791 l 5.67708,-5.01042 q 0.76042,-0.6875 1.125,-1.34375 0.36459,-0.65625 0.36459,-1.36458 0,-1.09375 -0.73959,-1.76042 -0.72916,-0.66667 -1.94791,-0.66667 -0.9375,0 -2.05209,0.40625 -1.11458,0.39584 -2.38541,1.1875 v -3.41666 q 1.35416,-0.44792 2.67708,-0.67709 1.32292,-0.23958 2.59375,-0.23958 2.79167,0 4.33333,1.22917 1.55209,1.22916 1.55209,3.42708 0,1.27083 -0.65625,2.375 -0.65625,1.09375 -2.76042,2.9375 z"
         style="font-size:21.33333397px;fill:#ffffff;fill-opacity:1"
         id="path831" />
      <path
         d="m 188.85221,125.28776 h 9.96875 v 2.94792 h -6.77083 v 2.40625 q 0.45833,-0.125 0.91667,-0.1875 0.46875,-0.0729 0.96875,-0.0729 2.84375,0 4.42708,1.42708 1.58333,1.41667 1.58333,3.95834 0,2.52083 -1.72916,3.94791 -1.71875,1.42709 -4.78125,1.42709 -1.32292,0 -2.625,-0.26042 -1.29167,-0.25 -2.57292,-0.77083 v -3.15625 q 1.27083,0.72916 2.40625,1.09375 1.14583,0.36458 2.15625,0.36458 1.45833,0 2.29167,-0.70833 0.84375,-0.71875 0.84375,-1.9375 0,-1.22917 -0.84375,-1.9375 -0.83334,-0.70834 -2.29167,-0.70834 -0.86458,0 -1.84375,0.22917 -0.97917,0.21875 -2.10417,0.6875 z"
         style="font-size:21.33333397px;fill:#ffffff;fill-opacity:1"
         id="path833" />
    </g>
  </g>
</svg>
